<svg xmlns="http://www.w3.org/2000/svg" viewBox="0 0 438.34 491.79"><defs><style>.cls-1{fill:#22b5bd;}</style></defs><title>citc_logo</title><g id="Layer_2" data-name="Layer 2"><g id="Layer_1-2" data-name="Layer 1"><path class="cls-1" d="M374.18,178.44A106.78,106.78,0,1,0,199.51,55.73,70.28,70.28,0,1,0,73.15,110.55a106.79,106.79,0,0,0,33.63,208.14H373.17v-.2a70.28,70.28,0,0,0,1-140ZM194.11,100.5a8.8,8.8,0,0,1,8.79-8.79h31.62a8.79,8.79,0,0,1,8.78,8.79v31.62a8.79,8.79,0,0,1-8.78,8.78H202.9a8.79,8.79,0,0,1-8.79-8.78Zm19.62,67.92V147.93a4.69,4.69,0,1,1,9.37,0v20.49H272a10,10,0,0,0,10-9.95V147.93a4.69,4.69,0,1,1,9.37,0v10.54A19.35,19.35,0,0,1,272,177.79H223.1V200a4.69,4.69,0,1,1-9.37,0V177.79H165.39a19.41,19.41,0,0,1-19-19.32V147.93a4.69,4.69,0,1,1,9.37,0v10.54a10,10,0,0,0,10,9.95ZM126.48,100.5a8.79,8.79,0,0,1,8.78-8.79h31.63a8.79,8.79,0,0,1,8.78,8.79v31.62a8.79,8.79,0,0,1-8.78,8.78H135.26a8.79,8.79,0,0,1-8.78-8.78ZM310.93,272.8a8.79,8.79,0,0,1-8.78,8.78H135.26a8.79,8.79,0,0,1-8.78-8.78v-17a8.8,8.8,0,0,1,8.78-8.79H302.15a8.8,8.8,0,0,1,8.78,8.79Zm0-39.82a8.79,8.79,0,0,1-8.78,8.78H135.26a8.79,8.79,0,0,1-8.78-8.78V216a8.79,8.79,0,0,1,8.78-8.78H302.15a8.79,8.79,0,0,1,8.78,8.78Zm0-100.86a8.79,8.79,0,0,1-8.78,8.78H270.53a8.79,8.79,0,0,1-8.78-8.78V100.5a8.79,8.79,0,0,1,8.78-8.79h31.62a8.79,8.79,0,0,1,8.78,8.79Z"/><rect class="cls-1" x="264.09" y="259.33" width="9.95" height="9.95" rx="2.48"/><rect class="cls-1" x="287.51" y="259.33" width="9.95" height="9.95" rx="2.48"/><rect class="cls-1" x="205.82" y="103.43" width="25.76" height="25.76" rx="1.2"/><rect class="cls-1" x="138.19" y="103.43" width="25.76" height="25.76" rx="1.2"/><rect class="cls-1" x="139.48" y="259.33" width="112.31" height="9.95" rx="2.48"/><rect class="cls-1" x="273.46" y="103.43" width="25.76" height="25.76" rx="1.2"/><rect class="cls-1" x="287.51" y="219.51" width="9.95" height="9.95" rx="2.48"/><rect class="cls-1" x="264.09" y="219.51" width="9.95" height="9.95" rx="2.48"/><rect class="cls-1" x="139.48" y="219.51" width="112.31" height="9.95" rx="2.48"/><path class="cls-1" d="M55.8,397.73a30.89,30.89,0,0,1-10.07,8,28.59,28.59,0,0,1-13,3,30,30,0,0,1-20.95-8.37,28.8,28.8,0,0,1-6.3-9.11,28.64,28.64,0,0,1,0-22.49,29.28,29.28,0,0,1,6.3-9.14,29,29,0,0,1,9.39-6.12,30.09,30.09,0,0,1,11.56-2.22,28.71,28.71,0,0,1,13,3A30.23,30.23,0,0,1,55.59,362l-7.4,7.61a19.61,19.61,0,0,0-6.61-5.91,18.68,18.68,0,0,0-16.2-.76,19.5,19.5,0,0,0-6,4,19,19,0,0,0-4.05,5.88A17.54,17.54,0,0,0,13.85,380a17.34,17.34,0,0,0,1.49,7.09A18.83,18.83,0,0,0,19.39,393a19.35,19.35,0,0,0,6,4,18.16,18.16,0,0,0,7.3,1.49,17.61,17.61,0,0,0,9.07-2.32A20.57,20.57,0,0,0,48.32,390Z"/><path class="cls-1" d="M98.85,407.69H61.41v-55.3H72.34v44.92H98.85Z"/><path class="cls-1" d="M150.9,352.32v30a31.09,31.09,0,0,1-1.66,10.31,24.61,24.61,0,0,1-4.81,8.34,22.32,22.32,0,0,1-7.68,5.61,27.21,27.21,0,0,1-20.6,0,22.89,22.89,0,0,1-7.78-5.5,24.12,24.12,0,0,1-5-8.24,29.6,29.6,0,0,1-1.73-10.2V352.32h10.73v30.46a19.44,19.44,0,0,0,.9,6,14.25,14.25,0,0,0,2.63,4.88,12.24,12.24,0,0,0,4.32,3.29,13.83,13.83,0,0,0,5.92,1.21,15.17,15.17,0,0,0,6.13-1.14,11.4,11.4,0,0,0,4.29-3.19,14,14,0,0,0,2.56-4.81,20.19,20.19,0,0,0,.86-6.09V352.32Z"/><path class="cls-1" d="M196.86,393.16a13.5,13.5,0,0,1-1.35,5.92,15.75,15.75,0,0,1-3.77,4.94,18.69,18.69,0,0,1-5.75,3.43,20.31,20.31,0,0,1-7.34,1.28,46.65,46.65,0,0,1-6.47-.41,28.43,28.43,0,0,1-5.4-1.32,25.6,25.6,0,0,1-4.84-2.32,45.67,45.67,0,0,1-4.81-3.42l7.61-7.69a21.85,21.85,0,0,0,6.51,3.91,20.38,20.38,0,0,0,6.92,1.14,9,9,0,0,0,2.87-.44A8.1,8.1,0,0,0,183.4,397a5.94,5.94,0,0,0,1.59-1.8,4.56,4.56,0,0,0,.59-2.28,5.51,5.51,0,0,0-.49-2.35,5.63,5.63,0,0,0-1.73-2,17.22,17.22,0,0,0-3.46-2q-2.22-1-5.68-2.25a52.73,52.73,0,0,1-5.84-2.53,20.64,20.64,0,0,1-4.92-3.42,15.66,15.66,0,0,1-3.39-4.71,16,16,0,0,1,.14-12.88,15.37,15.37,0,0,1,3.87-5.08,18.18,18.18,0,0,1,5.75-3.29,21,21,0,0,1,7.09-1.18,30.43,30.43,0,0,1,10.73,1.66,23.42,23.42,0,0,1,7.75,4.85l-7.47,7.54a15.22,15.22,0,0,0-4.64-3.08,15.6,15.6,0,0,0-6-1.07,8.48,8.48,0,0,0-2.94.49,7.73,7.73,0,0,0-2.32,1.28,6.3,6.3,0,0,0-1.56,1.86,4.67,4.67,0,0,0-.59,2.25,5.11,5.11,0,0,0,.56,2.39,6.36,6.36,0,0,0,1.87,2.08,18.57,18.57,0,0,0,3.49,2c1.46.67,3.27,1.39,5.44,2.18a42,42,0,0,1,7.12,3.18,19.7,19.7,0,0,1,4.85,3.81,13.46,13.46,0,0,1,2.77,4.67A17.79,17.79,0,0,1,196.86,393.16Z"/><path class="cls-1" d="M242.47,361.94h-15.3v45.75H216.31V361.94H201v-9.55h41.46Z"/><path class="cls-1" d="M285.93,407.69H249.39v-55.3h36.54v8.86h-26v13.22h25.68v8.65H259.91v15.23h26Z"/><path class="cls-1" d="M335.84,407.69H324l-3.93-12.59a20.49,20.49,0,0,0-1.55-3.81,11.91,11.91,0,0,0-2.25-3,9.35,9.35,0,0,0-3.14-1.94,12.24,12.24,0,0,0-4.32-.69h-4v22H294.24v-55.3l21.83-.07a17.76,17.76,0,0,1,6.57,1.21,16.07,16.07,0,0,1,5.25,3.36,15.43,15.43,0,0,1,3.45,5.05,15.84,15.84,0,0,1,1.24,6.3,15,15,0,0,1-.75,4.71,16.25,16.25,0,0,1-2.13,4.22,16.56,16.56,0,0,1-3.27,3.42,13.45,13.45,0,0,1-4.16,2.25,10.73,10.73,0,0,1,4.27,2.81,13.68,13.68,0,0,1,2.61,4.39c.32.79.62,1.57.89,2.36s.56,1.6.86,2.45l1,2.77,1.13,3.29c.51,1.52,1,2.83,1.42,3.91A19.68,19.68,0,0,0,335.84,407.69Zm-14-38.69a8.47,8.47,0,0,0-.73-3.53,8.8,8.8,0,0,0-2-2.77,9,9,0,0,0-2.94-1.83,10,10,0,0,0-3.64-.66h-7.75v17.24h7.75a11.16,11.16,0,0,0,3.64-.59,8.57,8.57,0,0,0,2.94-1.7,8.13,8.13,0,0,0,2-2.66A8.27,8.27,0,0,0,321.86,369Z"/><path class="cls-1" d="M381,407.69H370.27v-55.3H381Z"/><path class="cls-1" d="M437.41,407.69H426.89l-25-38.83v38.83H391.38V352.32h12l23.47,36.13V352.32h10.52Z"/><path class="cls-1" d="M43.2,445H27.91v45.75H17V445H1.74v-9.55H43.2Z"/><path class="cls-1" d="M93.38,490.75H82.65v-24.5H60.85v24.5H50.12v-55.3H60.85v21.94h21.8V435.45H93.38Z"/><path class="cls-1" d="M140.31,490.75H103.76v-55.3h36.55v8.86h-26v13.22H140v8.65H114.28v15.23h26Z"/><path class="cls-1" d="M221,480.78a30.79,30.79,0,0,1-10.07,8,28.53,28.53,0,0,1-13.05,3,30,30,0,0,1-20.95-8.38,28.65,28.65,0,0,1-6.3-9.1,28.64,28.64,0,0,1,0-22.49,28.81,28.81,0,0,1,15.69-15.26,30.13,30.13,0,0,1,11.56-2.22,28.53,28.53,0,0,1,13.05,3,30.1,30.1,0,0,1,9.86,7.75l-7.4,7.61a19.54,19.54,0,0,0-6.61-5.92,18.68,18.68,0,0,0-16.2-.76,19.64,19.64,0,0,0-6,4,19.17,19.17,0,0,0-4,5.88,17.52,17.52,0,0,0-1.48,7.16,17.34,17.34,0,0,0,1.48,7.1,19.17,19.17,0,0,0,4,5.88,19.64,19.64,0,0,0,6,4,18.18,18.18,0,0,0,7.3,1.48,17.61,17.61,0,0,0,9.07-2.31,20.71,20.71,0,0,0,6.58-6.13Z"/><path class="cls-1" d="M264.06,490.75H226.62v-55.3h10.93v44.92h26.51Z"/><path class="cls-1" d="M323.24,463.06a27.46,27.46,0,0,1-2.32,11.22,28.56,28.56,0,0,1-6.32,9.13,30.29,30.29,0,0,1-9.33,6.13,29.78,29.78,0,0,1-22.71,0,29.89,29.89,0,0,1-9.37-6.13,28.57,28.57,0,0,1-6.33-9.1,27.49,27.49,0,0,1-2.31-11.25,27.76,27.76,0,0,1,2.31-11.28,28.59,28.59,0,0,1,6.33-9.13,29.56,29.56,0,0,1,47.73,9.17A27.32,27.32,0,0,1,323.24,463.06Zm-10.73,0a17.83,17.83,0,0,0-1.45-7.16,19,19,0,0,0-4-5.88,19.37,19.37,0,0,0-5.93-4,18.36,18.36,0,0,0-14.49,0,19.25,19.25,0,0,0-5.93,4,18.66,18.66,0,0,0-4,5.88,18.21,18.21,0,0,0,0,14.29,18.61,18.61,0,0,0,4,5.92,19.25,19.25,0,0,0,5.93,4,18.47,18.47,0,0,0,14.49,0,19.37,19.37,0,0,0,5.93-4,19,19,0,0,0,4-5.92A17.86,17.86,0,0,0,312.51,463.06Z"/><path class="cls-1" d="M380.13,435.38v30a31.09,31.09,0,0,1-1.66,10.31,24.54,24.54,0,0,1-4.81,8.34,22.32,22.32,0,0,1-7.68,5.61,27.18,27.18,0,0,1-20.59,0,23.07,23.07,0,0,1-7.79-5.5,24.53,24.53,0,0,1-5-8.24,29.62,29.62,0,0,1-1.73-10.21V435.38h10.73v30.45a19.46,19.46,0,0,0,.9,6,14.42,14.42,0,0,0,2.63,4.88,12.4,12.4,0,0,0,4.33,3.29,13.93,13.93,0,0,0,5.91,1.21,15.14,15.14,0,0,0,6.13-1.14,11.61,11.61,0,0,0,4.29-3.19,13.79,13.79,0,0,0,2.56-4.81,20.18,20.18,0,0,0,.87-6.09V435.38Z"/><path class="cls-1" d="M438.34,463.06a29.5,29.5,0,0,1-1.94,10.77,27.72,27.72,0,0,1-5.39,8.79,25.18,25.18,0,0,1-18.76,8.13H389.13V435.38h23.12a24.83,24.83,0,0,1,10.48,2.21,25.88,25.88,0,0,1,8.28,6,27.07,27.07,0,0,1,5.39,8.79A29.47,29.47,0,0,1,438.34,463.06Zm-10.86-.27a20.56,20.56,0,0,0-1.18-7.34,17.93,17.93,0,0,0-3.6-6.06,16.64,16.64,0,0,0-5.78-4.08,19.22,19.22,0,0,0-7.72-1.49h-9.34v37.79h9.34a19.22,19.22,0,0,0,7.58-1.42,16.39,16.39,0,0,0,5.71-3.94,17.82,17.82,0,0,0,3.64-5.95A22.62,22.62,0,0,0,427.48,462.79Z"/></g></g></svg>